<svg xmlns="http://www.w3.org/2000/svg" width="1280" height="720" viewBox="0 0 1280 720" role="img" aria-labelledby="title desc">
  <title id="title">Aplicacao blue no navegador</title>
  <desc id="desc">Mockup de screenshot de navegador com a versao blue da aplicacao.</desc>
  <defs>
    <linearGradient id="bg" x1="0" x2="1" y1="0" y2="1">
      <stop offset="0%" stop-color="#34092d"/>
      <stop offset="100%" stop-color="#15040d"/>
    </linearGradient>
    <linearGradient id="appbg" x1="0" x2="1" y1="0" y2="1">
      <stop offset="0%" stop-color="#0f4c81"/>
      <stop offset="100%" stop-color="#1d9bf0"/>
    </linearGradient>
  </defs>
  <rect width="1280" height="720" fill="url(#bg)"/>
  <rect x="94" y="66" width="1096" height="588" rx="28" fill="#000000" opacity="0.26"/>
  <rect x="84" y="54" width="1114" height="604" rx="26" fill="#ffffff" stroke="#f9a8d4" stroke-width="2"/>
  <rect x="84" y="54" width="1114" height="54" rx="26" fill="#f3e8ff"/>
  <rect x="108" y="63" width="220" height="28" rx="10" fill="#ffffff" stroke="#e2e8f0"/>
  <rect x="122" y="70" width="12" height="12" rx="4" fill="#2563eb"/>
  <text x="142" y="82" fill="#334155" font-family="Segoe UI, Arial, sans-serif" font-size="16">localhost:8080</text>
  <rect x="354" y="67" width="572" height="28" rx="14" fill="#ffffff" stroke="#e2e8f0"/>
  <text x="376" y="86" fill="#475569" font-family="Segoe UI, Arial, sans-serif" font-size="18">http://localhost:8080</text>
  <g stroke="#64748b" stroke-width="2" stroke-linecap="round" stroke-linejoin="round" fill="none">
    <line x1="1122" y1="81" x2="1134" y2="81"/>
    <rect x="1148" y="72" width="12" height="10" rx="1.5"/>
    <path d="M1174 72 l12 12 M1186 72 l-12 12"/>
  </g>
  <rect x="112" y="132" width="1056" height="492" rx="18" fill="url(#appbg)"/>
  <text x="640" y="282" text-anchor="middle" fill="#ffffff" font-family="Segoe UI, Arial, sans-serif" font-size="56" font-weight="700">Kubernetes Update Strategies Lab</text>
  <text x="640" y="344" text-anchor="middle" fill="#ffffff" font-family="Segoe UI, Arial, sans-serif" font-size="34" font-weight="600">Blue Version</text>
  <text x="640" y="410" text-anchor="middle" fill="#e0f2fe" font-family="Segoe UI, Arial, sans-serif" font-size="25">Esta e a versao estavel inicial da aplicacao, usada como baseline para</text>
  <text x="640" y="446" text-anchor="middle" fill="#e0f2fe" font-family="Segoe UI, Arial, sans-serif" font-size="25">demonstrar estrategias de atualizacao no Kubernetes.</text>
</svg>
