<svg xmlns="http://www.w3.org/2000/svg" width="1280" height="720" viewBox="0 0 1280 720" role="img" aria-labelledby="title desc">
  <title id="title">GitHub Actions validando YAML</title>
  <desc id="desc">Mockup de screenshot de navegador com workflow do GitHub Actions aprovado.</desc>
  <defs>
    <linearGradient id="bg" x1="0" x2="1" y1="0" y2="1">
      <stop offset="0%" stop-color="#33092d"/>
      <stop offset="100%" stop-color="#14040c"/>
    </linearGradient>
  </defs>
  <rect width="1280" height="720" fill="url(#bg)"/>
  <rect x="94" y="66" width="1096" height="588" rx="28" fill="#000000" opacity="0.26"/>
  <rect x="84" y="54" width="1114" height="604" rx="26" fill="#f8fafc" stroke="#f9a8d4" stroke-width="2"/>
  <rect x="84" y="54" width="1114" height="54" rx="26" fill="#f3e8ff"/>
  <circle cx="120" cy="81" r="7" fill="#fb7185"/>
  <circle cx="146" cy="81" r="7" fill="#fbbf24"/>
  <circle cx="172" cy="81" r="7" fill="#4ade80"/>
  <rect x="220" y="67" width="740" height="28" rx="14" fill="#ffffff" stroke="#e2e8f0"/>
  <text x="242" y="86" fill="#475569" font-family="Segoe UI, Arial, sans-serif" font-size="18">github.com/brodyandre/kubernetes-update-strategies-lab/actions</text>
  <text x="118" y="148" fill="#0f172a" font-family="Segoe UI, Arial, sans-serif" font-size="34" font-weight="700">Validate Kubernetes YAML</text>
  <text x="118" y="186" fill="#475569" font-family="Segoe UI, Arial, sans-serif" font-size="20">docs: improve documentation and repository validation flow</text>
  <circle cx="128" cy="248" r="16" fill="#16a34a"/>
  <path d="M120 248 l6 6 l12 -14" fill="none" stroke="#ffffff" stroke-width="4" stroke-linecap="round" stroke-linejoin="round"/>
  <text x="160" y="255" fill="#0f172a" font-family="Segoe UI, Arial, sans-serif" font-size="24" font-weight="700">Success</text>
  <text x="160" y="286" fill="#64748b" font-family="Segoe UI, Arial, sans-serif" font-size="19">Completed in 12s on feature/docs-and-evidence</text>
  <rect x="118" y="330" width="1046" height="96" rx="18" fill="#f8fafc" stroke="#dbeafe"/>
  <text x="146" y="368" fill="#0f172a" font-family="Segoe UI, Arial, sans-serif" font-size="22" font-weight="700">Job: Validate YAML Files</text>
  <text x="146" y="400" fill="#475569" font-family="Segoe UI, Arial, sans-serif" font-size="18">Checkout repository  |  Set up Python  |  Install yamllint  |  Validate YAML formatting</text>
  <rect x="118" y="456" width="1046" height="148" rx="18" fill="#0f172a"/>
  <g font-family="Cascadia Code, Consolas, monospace" font-size="18">
    <text x="146" y="496" fill="#86efac">[INFO] Running yamllint on 11 YAML files...</text>
    <text x="146" y="528" fill="#86efac">[OK] YAML validation completed successfully.</text>
    <text x="146" y="570" fill="#94a3b8">Triggered by push and pull_request after workflow expansion</text>
  </g>
</svg>
