<svg xmlns="http://www.w3.org/2000/svg" width="1280" height="720" viewBox="0 0 1280 720" role="img" aria-labelledby="title desc">
  <title id="title">Imagens Docker buildadas</title>
  <desc id="desc">Mockup de screenshot de terminal WSL2 mostrando as imagens Docker do laboratorio.</desc>
  <defs>
    <linearGradient id="bg" x1="0" x2="1" y1="0" y2="1">
      <stop offset="0%" stop-color="#3a0d32"/>
      <stop offset="100%" stop-color="#160710"/>
    </linearGradient>
  </defs>
  <rect width="1280" height="720" fill="url(#bg)"/>
  <rect x="90" y="62" width="1100" height="596" rx="30" fill="#000000" opacity="0.28"/>
  <rect x="80" y="50" width="1120" height="610" rx="28" fill="#1a0a18" stroke="#f472b6" stroke-width="2"/>
  <rect x="80" y="50" width="1120" height="56" rx="28" fill="#341032"/>
  <rect x="80" y="78" width="1120" height="582" fill="#341032"/>
  <circle cx="116" cy="78" r="7" fill="#fb7185"/>
  <circle cx="142" cy="78" r="7" fill="#fbbf24"/>
  <circle cx="168" cy="78" r="7" fill="#4ade80"/>
  <text x="203" y="85" fill="#f5d0fe" font-family="Segoe UI, Arial, sans-serif" font-size="21">Ubuntu - Docker build</text>
  <rect x="112" y="132" width="1056" height="494" rx="16" fill="#120712" stroke="#5b114f"/>
  <g font-family="Cascadia Code, Consolas, monospace" font-size="19">
    <text x="132" y="170" fill="#f0abfc">luizandre@DESKTOP-6NVO7GR:/mnt/c/Users/USER/Documents/Repositorios/kubernetes-update-strategies-lab$ ./scripts/build-images.sh</text>
    <text x="132" y="208" fill="#cbd5e1">[INFO] Validating required tools...</text>
    <text x="132" y="238" fill="#cbd5e1">[INFO] Building image 'update-demo-blue:v1'...</text>
    <text x="132" y="268" fill="#cbd5e1">[INFO] Building image 'update-demo-green:v2'...</text>
    <text x="132" y="298" fill="#86efac">[OK] Docker images built successfully.</text>
    <text x="132" y="328" fill="#cbd5e1">[INFO] Available lab images:</text>
    <text x="132" y="366" fill="#f8fafc">REPOSITORY          TAG   SIZE</text>
    <text x="132" y="396" fill="#e5e7eb">update-demo-blue    v1    24.7MB</text>
    <text x="132" y="426" fill="#e5e7eb">update-demo-green   v2    24.8MB</text>
    <text x="132" y="478" fill="#94a3b8">docker image ls --filter=reference='update-demo-*'</text>
    <text x="132" y="570" fill="#94a3b8">Windows Terminal + WSL2 aesthetic in dark magenta</text>
  </g>
</svg>
