<svg xmlns="http://www.w3.org/2000/svg" width="1280" height="720" viewBox="0 0 1280 720" role="img" aria-labelledby="title desc">
  <title id="title">Estrategia Recreate executada</title>
  <desc id="desc">Mockup de terminal mostrando os pods da estrategia Recreate em execucao.</desc>
  <defs>
    <linearGradient id="bg" x1="0" x2="1" y1="0" y2="1">
      <stop offset="0%" stop-color="#34092d"/>
      <stop offset="100%" stop-color="#17050f"/>
    </linearGradient>
  </defs>
  <rect width="1280" height="720" fill="url(#bg)"/>
  <rect x="90" y="62" width="1100" height="596" rx="30" fill="#000000" opacity="0.28"/>
  <rect x="80" y="50" width="1120" height="610" rx="28" fill="#1a0a18" stroke="#f472b6" stroke-width="2"/>
  <rect x="80" y="50" width="1120" height="56" rx="28" fill="#341032"/>
  <rect x="80" y="78" width="1120" height="582" fill="#341032"/>
  <rect x="98" y="65" width="18" height="18" rx="4" fill="#7c3aed"/>
  <path d="M103 70 l5 5 -5 5 M111 79 h3" fill="none" stroke="#ffffff" stroke-width="2" stroke-linecap="round" stroke-linejoin="round"/>
  <text x="128" y="85" fill="#f5d0fe" font-family="Segoe UI, Arial, sans-serif" font-size="21">Ubuntu - recreate rollout</text>
  <g stroke="#f5d0fe" stroke-width="2" stroke-linecap="round" stroke-linejoin="round" fill="none">
    <line x1="1128" y1="81" x2="1140" y2="81"/>
    <rect x="1152" y="72" width="12" height="10" rx="1.5"/>
    <path d="M1180 72 l12 12 M1192 72 l-12 12"/>
  </g>
  <rect x="112" y="132" width="1056" height="494" rx="16" fill="#120712" stroke="#5b114f"/>
  <g font-family="Cascadia Code, Consolas, monospace" font-size="19">
    <text x="132" y="170" fill="#f0abfc">luizandre@DESKTOP-6NVO7GR:/mnt/c/Users/USER/Documents/Repositorios/kubernetes-update-strategies-lab$ kubectl get pods -n update-strategies -l app=recreate-demo -o wide</text>
    <text x="132" y="220" fill="#f8fafc">NAME                            READY   STATUS    RESTARTS   AGE   IP         NODE</text>
    <text x="132" y="250" fill="#e5e7eb">recreate-demo-76f4f6d787-9m2pk  1/1     Running   0          42s   10.42.2.8  k3d-update-strategies-lab-agent-1</text>
    <text x="132" y="304" fill="#f0abfc">luizandre@DESKTOP-6NVO7GR:/mnt/c/Users/USER/Documents/Repositorios/kubernetes-update-strategies-lab$ kubectl get svc recreate-service -n update-strategies</text>
    <text x="132" y="354" fill="#f8fafc">NAME               TYPE        CLUSTER-IP      EXTERNAL-IP   PORT(S)   AGE</text>
    <text x="132" y="384" fill="#e5e7eb">recreate-service   ClusterIP   10.43.190.87   &lt;none&gt;        80/TCP    54s</text>
    <text x="132" y="438" fill="#86efac">Recreate applied with the replacement pod already serving traffic.</text>
    <text x="132" y="570" fill="#94a3b8">Single active pod after replacement, matching the strategy behavior</text>
  </g>
</svg>
